<?xml version="1.0" encoding="UTF-8"?><svg id="Layer_2" xmlns="http://www.w3.org/2000/svg" viewBox="0 0 4760.96484375 1096.001953125"><path d="M237.5,848.501953125c-36.671875,0-74-4.5-112-13.5s-69.671875-20.828125-95-35.5l5-136h10l31,65c9.328125,18.671875,19.328125,35.171875,30,49.5,10.65625,14.34375,25.328125,25.5,44,33.5,13.328125,6.671875,26.15625,11.171875,38.5,13.5,12.328125,2.34375,26.15625,3.5,41.5,3.5,40.65625,0,72.828125-11,96.5-33,23.65625-22,35.5-50.328125,35.5-85,0-32.65625-8-58.15625-24-76.5-16-18.328125-41.671875-36.15625-77-53.5l-41-18c-57.34375-25.328125-102.171875-54.5-134.5-87.5-32.34375-33-48.5-76.828125-48.5-131.5,0-39.328125,10.15625-73.328125,30.5-102,20.328125-28.65625,48.65625-50.65625,85-66,36.328125-15.328125,78.828125-23,127.5-23,35.328125,0,68.828125,4.671875,100.5,14,31.65625,9.34375,59.15625,22,82.5,38l-6,120h-10l-41-75c-11.34375-23.328125-22.671875-39.828125-34-49.5-11.34375-9.65625-24.34375-16.5-39-20.5-8.671875-2.65625-16.671875-4.5-24-5.5-7.34375-1-16.671875-1.5-28-1.5-34,0-62.671875,9.84375-86,29.5-23.34375,19.671875-35,46.171875-35,79.5,0,34,9,61.171875,27,81.5,18,20.34375,44.328125,38.5,79,54.5l46,20c64,28,110,57.84375,138,89.5,28,31.671875,42,72.5,42,122.5,0,58.671875-22.171875,106.5-66.5,143.5-44.34375,37-107.171875,55.5-188.5,55.5Z" fill="#dc7f42" stroke="#dc7f42" stroke-miterlimit="10"/><path d="M721.501953125,845.501953125c-42.671875,0-75.84375-10.671875-99.5-32-23.671875-21.328125-35.5-55.328125-35.5-102v-342h-69v-10l24-4c20.65625-4.65625,38.5-11.328125,53.5-20,15-8.65625,29.828125-20.328125,44.5-35l82-91h10l-3,140h112v20h-113v360c0,23.34375,5.15625,41,15.5,53,10.328125,12,23.5,18,39.5,18,14,0,26.328125-3.5,37-10.5,10.65625-7,21.328125-16.5,32-28.5l10,10c-13.34375,22.671875-31.671875,40.671875-55,54-23.34375,13.328125-51.671875,20-85,20Z" fill="#dc7f42" stroke="#dc7f42" stroke-miterlimit="10"/><path d="M1140.50390625,334.501953125c43.328125,0,80.328125,8.84375,111,26.5,30.65625,17.671875,54.15625,41.671875,70.5,72,16.328125,30.34375,24.5,64.84375,24.5,103.5,0,7.34375-.34375,14.84375-1,22.5-.671875,7.671875-2,14.5-4,20.5h-298c.65625,72,13.5,123.84375,38.5,155.5,25,31.671875,62.15625,47.5,111.5,47.5,33.328125,0,60.328125-5.328125,81-16,20.65625-10.65625,40-26.328125,58-47l10,9c-20.671875,36.671875-48.171875,65.34375-82.5,86-34.34375,20.65625-75.5,31-123.5,31-47.34375,0-89.34375-10.171875-126-30.5-36.671875-20.328125-65.34375-49.5-86-87.5-20.671875-38-31-83.328125-31-136,0-54.65625,12-101.15625,36-139.5,24-38.328125,54.828125-67.5,92.5-87.5,37.65625-20,77.15625-30,118.5-30ZM1137.50390625,354.501953125c-19.34375,0-35.84375,5.84375-49.5,17.5-13.671875,11.671875-24.34375,32.34375-32,62-7.671875,29.671875-11.84375,71.5-12.5,125.5h171c6.65625-72.65625,4-125-8-157s-35-48-69-48Z" fill="#dc7f42" stroke="#dc7f42" stroke-miterlimit="10"/><path d="M1538.494140625,845.501953125c-38.671875,0-71.171875-11-97.5-33-26.34375-22-39.5-53.65625-39.5-95,0-31.328125,16-60.15625,48-86.5,32-26.328125,82.328125-46.15625,151-59.5,10.65625-2,22.65625-4.15625,36-6.5,13.328125-2.328125,27.328125-4.828125,42-7.5v-79c0-45.328125-5.5-77.15625-16.5-95.5-11-18.328125-28.171875-27.5-51.5-27.5-16,0-28.671875,5.171875-38,15.5-9.34375,10.34375-15.34375,28.171875-18,53.5l-2,11c-1.34375,28.671875-8.34375,49.671875-21,63-12.671875,13.34375-28.34375,20-47,20-17.34375,0-31.671875-5.328125-43-16-11.34375-10.65625-17-25-17-43,0-27.328125,9.5-50.328125,28.5-69,19-18.65625,44.15625-32.65625,75.5-42,31.328125-9.328125,65.328125-14,102-14,59.328125,0,105.15625,14.5,137.5,43.5,32.328125,29,48.5,76.171875,48.5,141.5v221c0,30,14,45,42,45h22l9,8c-12.671875,16-26.5,28.34375-41.5,37s-36.171875,13-63.5,13c-29.34375,0-52.5-6.84375-69.5-20.5s-28.171875-31.828125-33.5-54.5c-20,21.34375-40.5,39.5-61.5,54.5s-48.171875,22.5-81.5,22.5ZM1599.494140625,784.501953125c13.328125,0,25.828125-3.15625,37.5-9.5,11.65625-6.328125,25.5-16.15625,41.5-29.5v-168c-6.671875,1.34375-13.34375,2.671875-20,4-6.671875,1.34375-14.34375,2.671875-23,4-30.671875,8-55.171875,21.5-73.5,40.5-18.34375,19-27.5,44.5-27.5,76.5,0,27.34375,6.328125,47.84375,19,61.5,12.65625,13.671875,28,20.5,46,20.5Z" fill="#dc7f42" stroke="#dc7f42" stroke-miterlimit="10"/><path d="M1908.4853515625,830.501953125v-10l14-4c12.65625-3.328125,21.5-9,26.5-17s7.828125-18.65625,8.5-32v-313c0-14.65625-2.34375-25.5-7-32.5-4.671875-7-13.671875-11.828125-27-14.5l-15-4v-10l171-58,10,10,8,68c22-22,47.15625-40.65625,75.5-56,28.328125-15.328125,57.828125-23,88.5-23,32,0,57.65625,6.5,77,19.5,19.328125,13,34,33.171875,44,60.5,26-24.65625,54.15625-44.15625,84.5-58.5,30.328125-14.328125,59.828125-21.5,88.5-21.5,47.328125,0,82.15625,11.34375,104.5,34,22.328125,22.671875,33.5,58.34375,33.5,107v293c0,26,12,42.34375,36,49l11,3v10h-231v-10l10-3c12.65625-4,21.5-10,26.5-18s7.5-18.65625,7.5-32v-306c0-28-5-47.15625-15-57.5-10-10.328125-26-15.5-48-15.5-17.34375,0-34.171875,3.84375-50.5,11.5-16.34375,7.671875-33.5,19.171875-51.5,34.5,3.328125,10.671875,5.5,22.34375,6.5,35,1,12.671875,1.5,26,1.5,40v259c.65625,26,12.65625,42.34375,36,49l9,3v10h-232v-10l14-4c12.65625-4,21.5-9.828125,26.5-17.5,5-7.65625,7.5-18.15625,7.5-31.5v-305c0-26.65625-4.84375-45.65625-14.5-57-9.671875-11.328125-26.171875-17-49.5-17-15.34375,0-30.671875,3.84375-46,11.5-15.34375,7.671875-31.34375,18.84375-48,33.5v335c0,26,11.65625,42.34375,35,49l9,3v10h-235Z" fill="#dc7f42" stroke="#dc7f42" stroke-miterlimit="10"/><path d="M2915.486328125,833.501953125l-177-595c-4.671875-15.328125-9.671875-26.5-15-33.5-5.34375-7-14.671875-13.5-28-19.5l-12-5v-10h265v10l-21,8c-15.34375,6-25.671875,13.34375-31,22-5.34375,8.671875-5.671875,20.671875-1,36l109,416,118-349-23-71c-4.671875-14-9-24.65625-13-32-4-7.328125-10.671875-13.328125-20-18l-22-12v-10h251v10l-31,12c-13.34375,4.671875-20.84375,11.5-22.5,20.5-1.671875,9-.171875,20.5,4.5,34.5l127,425,120-417c4.65625-16,6.328125-30,5-42-1.34375-12-9.671875-20.65625-25-26l-21-7v-10h139v10l-26,10c-13.34375,4.671875-22.671875,12-28,22-5.34375,10-10,22.34375-14,37l-166,584h-69l-150-470-154,470h-69Z" fill="#dc7f42" stroke="#dc7f42" stroke-miterlimit="10"/><path d="M3777.4833984375,845.501953125c-50.671875,0-94.671875-10.5-132-31.5-37.34375-21-66.171875-50.828125-86.5-89.5-20.34375-38.65625-30.5-84-30.5-136s10.828125-97,32.5-135c21.65625-38,51.328125-67.328125,89-88,37.65625-20.65625,80.15625-31,127.5-31,47.328125,0,89.65625,10.171875,127,30.5,37.328125,20.34375,66.828125,49.5,88.5,87.5,21.65625,38,32.5,83.34375,32.5,136,0,52.671875-10.171875,98.171875-30.5,136.5-20.34375,38.34375-49,68-86,89s-80.84375,31.5-131.5,31.5ZM3777.4833984375,825.501953125c23.328125,0,42-6.65625,56-20,14-13.328125,24.15625-37,30.5-71,6.328125-34,9.5-82,9.5-144,0-62.65625-3.171875-111-9.5-145-6.34375-34-16.5-57.65625-30.5-71-14-13.328125-32.671875-20-56-20-23.34375,0-42.171875,6.671875-56.5,20-14.34375,13.34375-24.671875,37-31,71-6.34375,34-9.5,82.34375-9.5,145,0,62,3.15625,110,9.5,144,6.328125,34,16.65625,57.671875,31,71,14.328125,13.34375,33.15625,20,56.5,20Z" fill="#dc7f42" opacity="0" stroke="#dc7f42" stroke-miterlimit="10"/><path d="M4068.4833984375,830.501953125v-10l12-4c24-8,36-24.65625,36-50V231.501953125c0-13.328125-2.671875-23.5-8-30.5-5.34375-7-14.671875-12.15625-28-15.5l-13-3v-10l183-43,12,9-4,140v342c0,24.671875.15625,49.171875.5,73.5.328125,24.34375.5,48.5.5,72.5,0,13.34375,2.65625,24.171875,8,32.5,5.328125,8.34375,14.328125,14.5,27,18.5l13,3v10h-239Z" fill="#dc7f42" stroke="#dc7f42" stroke-miterlimit="10"/><path d="M4353.4794921875,830.501953125v-10l13-3c12.65625-3.328125,22.65625-9.15625,30-17.5,7.328125-8.328125,11-19.15625,11-32.5,0-24.65625.15625-49.15625.5-73.5.328125-24.328125.5-48.828125.5-73.5v-251h-56v-11l22-4c13.328125-1.328125,23-6,29-14s10.328125-19,13-33c6.65625-26,16.5-48.828125,29.5-68.5,13-19.65625,27.828125-37.828125,44.5-54.5,25.328125-24,52.15625-40.828125,80.5-50.5,28.328125-9.65625,56.15625-14.5,83.5-14.5,26.65625,0,51,5.5,73,16.5s33,29.171875,33,54.5c0,18-5.34375,32.171875-16,42.5-10.671875,10.34375-25.671875,15.5-45,15.5-16,0-30.671875-4.328125-44-13-13.34375-8.65625-26.34375-24-39-46l-14-17c-7.34375-9.328125-14.671875-13.828125-22-13.5-7.34375.34375-12.671875,5.84375-16,16.5-4.671875,23.34375-8.171875,50.671875-10.5,82-2.34375,31.34375-3.5,62-3.5,92h112v20h-112v396c0,25.34375,13.328125,41.671875,40,49l25,6v10h-262Z" fill="#dc7f42" stroke="#dc7f42" stroke-miterlimit="10"/><path d="M3972.47265625,578.0909423828125c-2.56005859375-19.3900146484375-3.85009765625-29.1800537109375-6.400390625-48.5599365234375l39.34033203125-46.1800537109375q-15.52001953125-26.8900146484375-31.080078125-53.8399658203125l-59.669921875,10.97998046875c-15.51025390625-11.9100341796875-23.34033203125-17.919921875-38.85009765625-29.820068359375l-4.83984375-60.4599609375c-20.05029296875-5.3699951171875-40.06005859375-10.739990234375-60.06005859375-16.0899658203125l-34.42041015625,49.9400634765625c-19.3798828125,2.5499267578125-29.169921875,3.83984375-48.5595703125,6.389892578125l-46.18017578125-39.3399658203125q-26.8798828125,15.530029296875-53.83984375,31.0899658203125l10.97998046875,59.6600341796875c-11.900390625,15.510009765625-17.919921875,23.3499755859375-29.8203125,38.8599853515625l-60.4599609375,4.840087890625c-5.3701171875,20.0399169921875-10.72998046875,40.0599365234375-16.08984375,60.0499267578125l49.93994140625,34.4200439453125c2.55029296875,19.389892578125,3.83984375,29.179931640625,6.39990234375,48.559814453125l-39.33984375,46.190185546875q15.52001953125,26.8798828125,31.080078125,53.829833984375l59.669921875-10.97998046875c15.509765625,11.900146484375,23.33984375,17.920166015625,38.85009765625,29.820068359375l4.83984375,60.4599609375c20.05029296875,5.3701171875,40.06005859375,10.730224609375,60.06005859375,16.090087890625l34.419921875-49.93994140625c19.3798828125-2.550048828125,29.169921875-3.840087890625,48.56005859375-6.39013671875l46.18017578125,39.330078125q26.8798828125-15.52001953125,53.830078125-31.080078125l-10.97021484375-59.659912109375c11.89990234375-15.510009765625,17.90966796875-23.35009765625,29.81982421875-38.860107421875l60.4501953125-4.83984375c5.3701171875-20.0400390625,10.73974609375-40.06005859375,16.10009765625-60.050048828125l-49.93994140625-34.4200439453125ZM3866.41259765625,648.31103515625c-4.4501953125,5.719970703125-9.490234375,11.02978515625-14.97998046875,15.7900390625-5.4404296875,4.719970703125-11.3603515625,8.93994140625-17.6103515625,12.5498046875-6.23974609375,3.60009765625-12.85986328125,6.6201171875-19.65966796875,8.97021484375-6.8701171875,2.369873046875-13.990234375,4.079833984375-21.17041015625,5.079833984375-14.9296875,2.080078125-29.94970703125,1.139892578125-44.6396484375-2.800048828125s-28.169921875-10.6298828125-40.06005859375-19.89990234375c-5.72021484375-4.449951171875-11.02978515625-9.489990234375-15.7900390625-14.97998046875-4.72021484375-5.43994140625-8.93994140625-11.360107421875-12.55029296875-17.60009765625-3.599609375-6.25-6.61962890625-12.85986328125-8.9697265625-19.669921875-2.3701171875-6.8701171875-4.080078125-13.989990234375-5.080078125-21.1700439453125-2.080078125-14.9300537109375-1.1396484375-29.949951171875,2.7998046875-44.6400146484375,3.9404296875-14.68994140625,10.63037109375-28.169921875,19.900390625-40.0599365234375,4.44970703125-5.7100830078125,9.48974609375-11.030029296875,14.97998046875-15.7900390625,5.43994140625-4.719970703125,11.35986328125-8.9400634765625,17.60009765625-12.5499267578125v.010009765625c6.25-3.610107421875,12.85986328125-6.630126953125,19.669921875-8.97998046875,6.8701171875-2.3701171875,13.98974609375-4.080078125,21.169921875-5.080078125,14.9296875-2.080078125,29.9501953125-1.1300048828125,44.64013671875,2.800048828125,14.68994140625,3.93994140625,28.15966796875,10.6298828125,40.06005859375,19.89990234375,5.7099609375,4.4500732421875,11.01953125,9.489990234375,15.7900390625,14.97998046875,4.7197265625,5.4400634765625,8.939453125,11.360107421875,12.53955078125,17.60009765625,3.6103515625,6.25,6.63037109375,12.8699951171875,8.97998046875,19.669921875,2.3701171875,6.8701171875,4.080078125,13.989990234375,5.0703125,21.1700439453125,2.080078125,14.9300537109375,1.1396484375,29.9500732421875-2.7900390625,44.6400146484375-3.93994140625,14.68994140625-10.64013671875,28.169921875-19.89990234375,40.06005859375Z" fill="#dc7f42" stroke="#dc7f42" stroke-miterlimit="10" stroke-width="20"/></svg>