<?xml version="1.0" encoding="UTF-8"?><svg id="Layer_1" xmlns="http://www.w3.org/2000/svg" viewBox="0 0 3177.58898172862519 3177.58910860410833"><path d="M1588.25105029988936,2835.18416960155992l-321.52099609375-42.3271484375-295.33740234375,251.564453125-334.505859375-193.126953125,70.1923828125-381.552734375-197.41845703125-257.2822265625-386.71875-30.951171875-99.97021484375-373.091796875,319.43212890625-220.16552734375,42.3291015625-321.52099609375-251.56494140625-295.337890625,193.126953125-334.50537109375,381.55224609375,70.1923828125,257.28173828125-197.41845703125,30.951171875-386.71875,373.0927734375-99.97021484375,220.1650390625,319.43212890625,321.52197265625,42.3291015625,295.3369140625-251.56494140625,334.5048828125,193.126953125-70.19140625,381.55224609375,197.4189453125,257.28173828125,386.7177734375,30.951171875,99.970703125,373.09326171875-319.43359375,220.16455078125-42.3271484375,321.52197265625,251.564453125,295.3369140625-193.126953125,334.5048828125-381.552734375-70.19140625-257.2822265625,197.4189453125-30.951171875,386.7177734375-373.091796875,99.970703125-220.16552734375-319.43359375ZM1589.26228076863936,833.15389616405992c-65.84716796875,0-131.7890625,8.72265625-195.994140625,25.92626953125-402.365234375,107.81396484375-642.0009765625,522.875-534.18798828125,925.24072265625,88.36669921875,329.787109375,388.244140625,560.115234375,729.2470703125,560.115234375,65.84814453125,0,131.78955078125-8.72265625,195.99365234375-25.9267578125,402.3662109375-107.814453125,642.001953125-522.8759765625,534.1884765625-925.2412109375-88.3671875-329.787109375-388.244140625-560.1142578125-729.2470703125-560.1142578125Z" fill="#dc7f42" stroke-width="0"/><path d="M1364.94465381551436,34.45772917187242l213.6375732421875,309.9619140625,5.0440673828125,7.31866455078125,8.812744140625,1.160400390625,156.35400390625,20.5845947265625,156.354736328125,20.58453369140625,8.812744140625,1.15997314453125,6.766357421875-5.76361083984375,286.582275390625-244.107177734375,161.140869140625,93.034423828125,161.140625,93.03448486328125-68.111572265625,370.24102783203125-1.608154296875,8.7418212890625,5.410888671875,7.05224609375,96.004150390625,125.114501953125,96.003662109375,125.114990234375,5.4111328125,7.0518798828125,8.860595703125.7091064453125,375.253662109375,30.0343017578125,74.922119140625,279.615234375,21.394287109375,79.84375-309.9619140625,213.6375732421875-7.318603515625,5.0440673828125-1.160400390625,8.812744140625-41.168701171875,312.7086181640625-1.159912109375,8.812744140625,5.763427734375,6.766357421875,244.10693359375,286.58203125-101.252685546875,175.375244140625-84.81640625,146.90625-370.241455078125-68.111328125-8.7421875-1.608154296875-7.0517578125,5.411376953125-125.1142578125,96.003662109375-125.114501953125,96.004150390625-7.0517578125,5.410888671875-.708984375,8.8603515625-30.034912109375,375.253173828125-216.322021484375,57.963623046875-143.136474609375,38.353515625-213.6375732421875-309.962158203125-5.044189453125-7.318603515625-8.8126220703125-1.160400390625-312.708740234375-41.1689453125-8.8126220703125-1.16015625-6.766357421875,5.763671875-286.5823974609375,244.107177734375-215.0849609375-124.179443359375-107.1966552734375-61.889892578125,68.1112060546875-370.240966796875,1.608154296875-8.741943359375-5.410888671875-7.0517578125-128.86358642578125-167.937744140625-63.14410400390625-82.291748046875-5.411376953125-7.0517578125-8.8604736328125-.709228515625-375.253173828125-30.0341796875-48.15863037109375-179.7294921875-48.15826416015625-179.7294921875,309.9619140625-213.6376953125,7.31866455078125-5.0440673828125,1.160400390625-8.812744140625,20.5845947265625-156.3541259765625,20.58453369140625-156.3544921875,1.15997314453125-8.812744140625-5.76361083984375-6.766357421875-244.107177734375-286.5823974609375,93.034912109375-161.1407470703125,93.034423828125-161.140869140625,370.240966796875,68.1116943359375,8.7418212890625,1.608154296875,7.0523681640625-5.410888671875,94.0081787109375-72.1353759765625,156.2208251953125-119.872802734375,7.0518798828125-5.410888671875.7091064453125-8.8604736328125,30.0343017578125-375.253173828125,179.729248046875-48.15863037109375,179.729736328125-48.15826416015625M1588.32673389363936,2354.43563444530992c66.719970703125,0,133.53271484375-8.837890625,198.582275390625-26.267333984375,197.494140625-52.918701171875,362.5595703125-179.57763671875,464.7900390625-356.64599609375,102.23046875-177.068115234375,129.38720703125-383.3485107421875,76.468994140625-580.8421630859375-89.539794921875-334.1668701171875-393.389404296875-567.5423583984375-738.90673828125-567.5263671875-66.7318115234375.003173828125-133.5440673828125,8.8408203125-198.581298828125,26.2672119140625-197.494140625,52.918701171875-362.5595703125,179.5777587890625-464.78955078125,356.6458740234375-102.23046875,177.0677490234375-129.3878173828125,383.3486328125-76.4696044921875,580.8424072265625,89.535888671875,334.15087890625,393.385009765625,567.5263671875,738.9058837890625,567.5263671875M1373.40180713582686,11.48601896679429q-193.1131591796875,51.74453735351562-386.7264404296875,103.62319946289062l-31.160400390625,389.32318115234375c-99.884521484375,76.64453125-150.3441162109375,115.36309814453125-250.2291259765625,192.00775146484375l-384.1226806640625-70.66552734375q-99.9627685546875,173.1405029296875-200.18408203125,346.7291259765625l253.259521484375,297.3272705078125c-16.43365478515625,124.824951171875-24.7354736328125,187.8836669921875-41.1690673828125,312.7086181640625L11.48588306356123,1804.18734342968492q51.74453735351562,193.11328125,103.62319946289062,386.726318359375l389.32318115234375,31.16064453125c76.64453125,99.884765625,115.36358642578125,150.344482421875,192.00775146484375,250.22900390625l-70.6650390625,384.122802734375q173.140380859375,99.962646484375,346.7291259765625,200.18408203125l297.3272705078125-253.259521484375c124.824951171875,16.43359375,187.8831787109375,24.7353515625,312.7086181640625,41.1689453125l221.6475830078125,321.583740234375q193.11279296875-51.74462890625,386.72607421875-103.623291015625l31.160888671875-389.3232421875c99.884521484375-76.64453125,150.343994140625-115.363037109375,250.228515625-192.007568359375l384.123291015625,70.6650390625q99.962158203125-173.140625,200.18359375-346.729248046875l-253.259033203125-297.32666015625c16.43310546875-124.8251953125,24.73486328125-187.8837890625,41.168701171875-312.708740234375l321.58349609375-221.647705078125q-51.744384765625-193.1131591796875-103.622802734375-386.7264404296875l-389.323486328125-31.160400390625c-76.64453125-99.885009765625-115.36328125-150.3446044921875-192.0078125-250.2294921875l70.66552734375-384.122802734375q-173.140380859375-99.9622802734375-346.72900390625-200.18359375l-297.327392578125,253.259521484375c-124.824951171875-16.43365478515625-187.883544921875-24.7354736328125-312.7086181640625-41.1690673828125L1373.40180713582686,11.48601896679429h0ZM1588.32685596395186,2334.43539030468492c-329.1531982421875,0-630.3433837890625-219.6396484375-719.58740234375-552.70263671875-106.5567626953125-397.6754150390625,129.44140625-806.436279296875,527.1168212890625-912.9931640625,64.612548828125-17.3128662109375,129.5517578125-25.5828857421875,193.4058837890625-25.5858154296875,329.1531982421875-.0150146484375,630.3433837890625,219.6397705078125,719.5872802734375,552.70263671875,106.557373046875,397.6754150390625-129.44140625,806.4364013671875-527.11669921875,912.9932861328125-64.612548828125,17.312744140625-129.5517578125,25.585693359375-193.4058837890625,25.585693359375h0Z" fill="#000" stroke-width="0"/></svg>